#N canvas 0 0 1920 944 16;
#X obj 501 236 metro;
#X obj 404 265 bng 20 250 50 0 empty empty empty 17 7 0 10 -262144
-1 -1;
#X obj 495 174 tgl 20 0 empty empty empty 17 7 0 10 -262144 -1 -1 1
1;
#X obj 550 21 loadbang;
#X obj 281 242 loadbang;
#X obj 501 276 bng 20 250 50 0 empty empty empty 17 7 0 10 -262144
-1 -1;
#X obj 531 378 + 1;
#X floatatom 454 388 5 0 0 0 - - -;
#X obj 454 337 int 1;
#X floatatom 548 202 5 0 0 0 - - -;
#X obj 404 224 sel 0;
#X msg 404 294 -1;
#X obj 86 717 spigot;
#X obj 141 683 tgl 20 0 empty empty empty 17 7 0 10 -262144 -1 -1 1
1;
#X obj 548 60 vsl 15 128 0 300 0 0 empty empty empty 0 -9 0 10 -262144
-1 -1 9000 1;
#X floatatom 20 747 5 0 0 0 - - -;
#X floatatom 205 464 5 0 0 0 - - -;
#X obj 224 630 key;
#X obj 271 720 spigot;
#X obj 326 686 tgl 20 0 empty empty empty 17 7 0 10 -262144 -1 -1 1
1;
#X floatatom 205 750 5 0 0 0 - - -;
#X floatatom 390 467 5 0 0 0 - - -;
#X obj 409 633 key;
#X obj 463 721 spigot;
#X obj 518 687 tgl 20 0 empty empty empty 17 7 0 10 -262144 -1 -1 1
1;
#X floatatom 397 751 5 0 0 0 - - -;
#X floatatom 582 468 5 0 0 0 - - -;
#X obj 601 634 key;
#X obj 658 721 spigot;
#X obj 713 687 tgl 20 0 empty empty empty 17 7 0 10 -262144 -1 -1 1
1;
#X floatatom 592 751 5 0 0 0 - - -;
#X floatatom 777 468 5 0 0 0 - - -;
#X obj 796 634 key;
#X obj 843 725 spigot;
#X obj 898 691 tgl 20 0 empty empty empty 17 7 0 10 -262144 -1 -1 1
1;
#X floatatom 777 755 5 0 0 0 - - -;
#X floatatom 962 472 5 0 0 0 - - -;
#X obj 981 638 key;
#X obj 940 666 sel 116;
#X obj 183 658 sel 113;
#X obj 327 518 s n2;
#X obj 275 598 receive n2;
#X obj 142 515 s n1;
#X obj 90 595 receive n1;
#X obj 519 519 s n3;
#X obj 467 599 receive n3;
#X obj 714 519 s n4;
#X obj 662 599 receive n4;
#X obj 899 523 s n5;
#X obj 847 603 receive n5;
#X obj 368 661 sel 119;
#X obj 560 662 sel 101;
#X obj 755 662 sel 114;
#N canvas 160 62 456 676 drumset 0;
#X floatatom 149 123 5 0 0 0 - - -;
#X obj 149 41 inlet;
#X obj 122 347 noteout 10;
#X msg 125 265 36;
#X obj 149 87 % 16;
#X obj 128 184 sel 0 5 8 13;
#X obj 122 306 makenote 60 300;
#X obj 282 185 sel 2 6 10 14;
#X msg 213 258 38;
#X connect 0 0 5 0;
#X connect 0 0 7 0;
#X connect 1 0 4 0;
#X connect 3 0 6 0;
#X connect 4 0 0 0;
#X connect 5 0 3 0;
#X connect 5 1 3 0;
#X connect 5 2 3 0;
#X connect 5 3 3 0;
#X connect 6 0 2 0;
#X connect 6 1 2 1;
#X connect 7 0 8 0;
#X connect 7 1 8 0;
#X connect 7 2 8 0;
#X connect 7 3 8 0;
#X connect 8 0 6 0;
#X restore 69 784 pd drumset;
#X obj 454 431 % 64;
#N canvas 664 34 1364 676 bass 0;
#X obj 216 2 inlet;
#X obj 213 55 moses;
#X obj 166 133 moses;
#X obj 311 78 moses;
#X floatatom 295 33 5 0 0 0 - - -;
#X floatatom 225 117 5 0 0 0 - - -;
#X floatatom 385 56 5 0 0 0 - - -;
#X obj 83 347 bng 15 250 50 0 empty empty empty 17 7 0 10 -262144 -1
-1;
#X obj 246 354 bng 15 250 50 0 empty empty empty 17 7 0 10 -262144
-1 -1;
#X obj 454 260 bng 15 250 50 0 empty empty empty 17 7 0 10 -262144
-1 -1;
#X obj 700 279 bng 15 250 50 0 empty empty empty 17 7 0 10 -262144
-1 -1;
#X floatatom 974 166 5 0 0 0 - - -;
#X obj 1024 216 pgmout 4;
#X obj 764 436 noteout 4;
#X obj 494 387 noteout 4;
#X obj 269 520 noteout 4;
#X obj 81 508 noteout 4;
#X msg 358 10 32;
#X msg 226 88 16;
#X msg 457 32 48;
#X msg 71 394 47;
#X msg 264 421 52;
#X msg 467 305 47;
#X msg 735 349 52;
#X obj 72 459 makenote 60 200;
#X obj 260 472 makenote 60 200;
#X obj 466 353 makenote 60 200;
#X obj 735 388 makenote 60 200;
#X msg 928 88 34;
#X connect 0 0 1 0;
#X connect 1 0 2 0;
#X connect 1 1 3 0;
#X connect 2 0 7 0;
#X connect 2 1 8 0;
#X connect 3 0 9 0;
#X connect 3 1 10 0;
#X connect 4 0 1 1;
#X connect 5 0 2 1;
#X connect 6 0 3 1;
#X connect 7 0 20 0;
#X connect 8 0 21 0;
#X connect 9 0 22 0;
#X connect 10 0 23 0;
#X connect 11 0 12 0;
#X connect 17 0 4 0;
#X connect 18 0 5 0;
#X connect 19 0 6 0;
#X connect 20 0 24 0;
#X connect 21 0 25 0;
#X connect 22 0 26 0;
#X connect 23 0 27 0;
#X connect 24 0 16 0;
#X connect 24 1 16 1;
#X connect 25 0 15 0;
#X connect 25 1 15 1;
#X connect 26 0 14 0;
#X connect 26 1 14 1;
#X connect 27 0 13 0;
#X connect 27 1 13 1;
#X connect 28 0 11 0;
#X restore 641 786 pd bass;
#N canvas 489 43 1370 676 riff 0;
#X floatatom 53 257 5 0 0 0 - - -;
#X obj 230 59 inlet;
#X obj 192 104 moses;
#X obj 145 182 moses;
#X obj 290 127 moses;
#X floatatom 274 82 5 0 0 0 - - -;
#X floatatom 204 166 5 0 0 0 - - -;
#X floatatom 364 105 5 0 0 0 - - -;
#X obj 26 401 bng 15 250 50 0 empty empty empty 17 7 0 10 -262144 -1
-1;
#X obj 71 401 bng 15 250 50 0 empty empty empty 17 7 0 10 -262144 -1
-1;
#X obj 126 402 bng 15 250 50 0 empty empty empty 17 7 0 10 -262144
-1 -1;
#X floatatom 958 131 5 0 0 0 - - -;
#X obj 1006 181 pgmout 5;
#X obj 60 556 noteout 5;
#X obj 52 509 makenote 60 400;
#X msg 336 59 32;
#X msg 205 137 16;
#X msg 436 82 48;
#X obj 79 218 % 16;
#X obj 425 238 % 16;
#X obj 290 162 % 16;
#X obj 695 150 % 16;
#X obj 29 328 sel 0 1 3 8 9 11;
#X obj 209 328 sel 4 12;
#X obj 331 322 sel 6 14;
#X obj 429 460 bng 15 250 50 0 empty empty empty 17 7 0 10 -262144
-1 -1;
#X obj 474 460 bng 15 250 50 0 empty empty empty 17 7 0 10 -262144
-1 -1;
#X obj 529 461 bng 15 250 50 0 empty empty empty 17 7 0 10 -262144
-1 -1;
#X obj 463 615 noteout 5;
#X obj 455 568 makenote 60 400;
#X obj 432 387 sel 0 1 3 8 9 11;
#X obj 612 387 sel 4 12;
#X obj 734 381 sel 6 14;
#X floatatom 471 298 5 0 0 0 - - -;
#X msg 8 448 74;
#X msg 71 447 71;
#X msg 129 452 69;
#X msg 411 507 67;
#X msg 474 506 71;
#X msg 532 511 74;
#X msg 912 54 39;
#X connect 0 0 22 0;
#X connect 0 0 23 0;
#X connect 0 0 24 0;
#X connect 1 0 2 0;
#X connect 2 0 3 0;
#X connect 2 1 4 0;
#X connect 3 0 18 0;
#X connect 3 1 19 0;
#X connect 4 0 20 0;
#X connect 4 1 21 0;
#X connect 5 0 2 1;
#X connect 6 0 3 1;
#X connect 7 0 4 1;
#X connect 8 0 34 0;
#X connect 9 0 35 0;
#X connect 10 0 36 0;
#X connect 11 0 12 0;
#X connect 14 0 13 0;
#X connect 14 1 13 1;
#X connect 15 0 5 0;
#X connect 16 0 6 0;
#X connect 17 0 7 0;
#X connect 18 0 0 0;
#X connect 19 0 33 0;
#X connect 20 0 0 0;
#X connect 21 0 33 0;
#X connect 22 0 8 0;
#X connect 22 1 8 0;
#X connect 22 2 8 0;
#X connect 22 3 8 0;
#X connect 22 4 8 0;
#X connect 22 5 8 0;
#X connect 23 0 9 0;
#X connect 23 1 9 0;
#X connect 24 0 10 0;
#X connect 24 1 10 0;
#X connect 25 0 37 0;
#X connect 26 0 38 0;
#X connect 27 0 39 0;
#X connect 29 0 28 0;
#X connect 29 1 28 1;
#X connect 30 0 25 0;
#X connect 30 1 25 0;
#X connect 30 2 25 0;
#X connect 30 3 25 0;
#X connect 30 4 25 0;
#X connect 30 5 25 0;
#X connect 31 0 26 0;
#X connect 31 1 26 0;
#X connect 32 0 27 0;
#X connect 32 1 27 0;
#X connect 33 0 30 0;
#X connect 33 0 31 0;
#X connect 33 0 32 0;
#X connect 34 0 14 0;
#X connect 35 0 14 0;
#X connect 36 0 14 0;
#X connect 37 0 29 0;
#X connect 38 0 29 0;
#X connect 39 0 29 0;
#X connect 40 0 11 0;
#X restore 827 790 pd riff;
#N canvas 335 25 1520 676 piano 0;
#X floatatom 119 145 5 0 0 0 - - -;
#X obj 232 -41 inlet;
#X obj 233 10 moses;
#X obj 331 33 moses;
#X floatatom 315 -12 5 0 0 0 - - -;
#X obj 41 260 bng 15 250 50 0 empty empty empty 17 7 0 10 -262144 -1
-1;
#X floatatom 1150 97 5 0 0 0 - - -;
#X obj 37 502 noteout 2;
#X obj 29 472 makenote 60 250;
#X obj 1144 156 pgmout 2;
#X msg 378 -35 32;
#X obj 120 109 % 16;
#X floatatom 405 11 5 0 0 0 - - -;
#X obj 153 72 moses;
#X floatatom 244 74 5 0 0 0 - - -;
#X msg 504 -37 48;
#X msg 244 45 16;
#X obj 331 68 % 16;
#X obj 111 189 sel 4 5 7;
#X obj 165 262 bng 15 250 50 0 empty empty empty 17 7 0 10 -262144
-1 -1;
#X obj 134 301 t b b;
#X obj 211 188 sel 12 13 15;
#X msg 261 379 85;
#X obj 284 263 bng 15 250 50 0 empty empty empty 17 7 0 10 -262144
-1 -1;
#X obj 252 303 t b b;
#X obj 6 188 sel 0 1 3;
#X obj 341 189 sel 8 9 11;
#X obj 14 304 t b b;
#X obj 360 307 t b b;
#X obj 363 261 bng 15 250 50 0 empty empty empty 17 7 0 10 -262144
-1 -1;
#X msg -34 380 71;
#X msg 313 383 71;
#X msg 23 380 86;
#X msg 369 383 83;
#X msg 86 377 69;
#X msg 143 377 81;
#X msg 204 379 73;
#X floatatom 593 184 5 0 0 0 - - -;
#X obj 515 299 bng 15 250 50 0 empty empty empty 17 7 0 10 -262144
-1 -1;
#X obj 511 520 noteout 2;
#X obj 502 472 makenote 60 250;
#X obj 594 148 % 16;
#X obj 585 228 sel 4 5 7;
#X obj 639 301 bng 15 250 50 0 empty empty empty 17 7 0 10 -262144
-1 -1;
#X obj 608 340 t b b;
#X obj 758 302 bng 15 250 50 0 empty empty empty 17 7 0 10 -262144
-1 -1;
#X obj 726 342 t b b;
#X obj 480 227 sel 0 1 3;
#X obj 815 228 sel 8 9 11;
#X obj 488 343 t b b;
#X obj 834 346 t b b;
#X obj 837 300 bng 15 250 50 0 empty empty empty 17 7 0 10 -262144
-1 -1;
#X msg 440 419 71;
#X msg 497 419 83;
#X msg 560 416 73;
#X msg 617 416 85;
#X msg 787 422 69;
#X msg 843 422 81;
#X obj 685 227 sel 12 13;
#X msg 678 418 74;
#X msg 735 418 86;
#X msg 1147 21 3;
#X connect 0 0 18 0;
#X connect 0 0 21 0;
#X connect 0 0 25 0;
#X connect 0 0 26 0;
#X connect 1 0 2 0;
#X connect 2 0 13 0;
#X connect 2 1 3 0;
#X connect 3 0 17 0;
#X connect 3 1 41 0;
#X connect 4 0 2 1;
#X connect 5 0 27 0;
#X connect 6 0 9 0;
#X connect 8 0 7 0;
#X connect 8 1 7 1;
#X connect 10 0 4 0;
#X connect 11 0 0 0;
#X connect 12 0 3 1;
#X connect 13 0 11 0;
#X connect 13 1 41 0;
#X connect 14 0 13 1;
#X connect 15 0 12 0;
#X connect 16 0 14 0;
#X connect 17 0 0 0;
#X connect 18 0 19 0;
#X connect 18 1 19 0;
#X connect 18 2 19 0;
#X connect 19 0 20 0;
#X connect 20 0 34 0;
#X connect 20 1 35 0;
#X connect 21 0 23 0;
#X connect 21 1 23 0;
#X connect 21 2 23 0;
#X connect 22 0 8 0;
#X connect 23 0 24 0;
#X connect 24 0 36 0;
#X connect 24 1 22 0;
#X connect 25 0 5 0;
#X connect 25 1 5 0;
#X connect 25 2 5 0;
#X connect 26 0 29 0;
#X connect 26 1 29 0;
#X connect 26 2 29 0;
#X connect 27 0 30 0;
#X connect 27 1 32 0;
#X connect 28 0 31 0;
#X connect 28 1 33 0;
#X connect 29 0 28 0;
#X connect 30 0 8 0;
#X connect 31 0 8 0;
#X connect 32 0 8 0;
#X connect 33 0 8 0;
#X connect 34 0 8 0;
#X connect 35 0 8 0;
#X connect 36 0 8 0;
#X connect 37 0 42 0;
#X connect 37 0 47 0;
#X connect 37 0 48 0;
#X connect 37 0 58 0;
#X connect 38 0 49 0;
#X connect 40 0 39 0;
#X connect 40 1 39 1;
#X connect 41 0 37 0;
#X connect 42 0 43 0;
#X connect 42 1 43 0;
#X connect 42 2 43 0;
#X connect 43 0 44 0;
#X connect 44 0 54 0;
#X connect 44 1 55 0;
#X connect 45 0 46 0;
#X connect 46 0 59 0;
#X connect 46 1 60 0;
#X connect 47 0 38 0;
#X connect 47 1 38 0;
#X connect 47 2 38 0;
#X connect 48 0 51 0;
#X connect 48 1 51 0;
#X connect 48 2 51 0;
#X connect 49 0 52 0;
#X connect 49 1 53 0;
#X connect 50 0 56 0;
#X connect 50 1 57 0;
#X connect 51 0 50 0;
#X connect 52 0 40 0;
#X connect 53 0 40 0;
#X connect 54 0 40 0;
#X connect 55 0 40 0;
#X connect 56 0 40 0;
#X connect 57 0 40 0;
#X connect 58 0 45 0;
#X connect 58 1 45 0;
#X connect 59 0 40 0;
#X connect 60 0 40 0;
#X connect 61 0 6 0;
#X restore 254 785 pd piano;
#N canvas 655 131 905 676 hi_hat 0;
#X obj 15 372 makenote 60 300;
#X obj 8 39 inlet;
#X obj 14 417 noteout 10;
#X msg 15 323 42;
#X connect 0 0 2 0;
#X connect 0 1 2 1;
#X connect 1 0 3 0;
#X connect 3 0 0 0;
#X restore 446 787 pd hi_hat;
#X connect 0 0 5 0;
#X connect 1 0 11 0;
#X connect 2 0 0 0;
#X connect 2 0 10 0;
#X connect 3 0 14 0;
#X connect 4 0 1 0;
#X connect 5 0 8 0;
#X connect 6 0 8 1;
#X connect 7 0 54 0;
#X connect 8 0 6 0;
#X connect 8 0 7 0;
#X connect 9 0 0 1;
#X connect 10 0 1 0;
#X connect 11 0 8 0;
#X connect 12 0 15 0;
#X connect 12 0 53 0;
#X connect 13 0 12 1;
#X connect 14 0 9 0;
#X connect 16 0 42 0;
#X connect 17 0 39 0;
#X connect 18 0 20 0;
#X connect 18 0 57 0;
#X connect 19 0 18 1;
#X connect 21 0 40 0;
#X connect 22 0 50 0;
#X connect 23 0 25 0;
#X connect 23 0 58 0;
#X connect 24 0 23 1;
#X connect 26 0 44 0;
#X connect 27 0 51 0;
#X connect 28 0 30 0;
#X connect 28 0 55 0;
#X connect 29 0 28 1;
#X connect 31 0 46 0;
#X connect 32 0 52 0;
#X connect 33 0 35 0;
#X connect 33 0 56 0;
#X connect 34 0 33 1;
#X connect 36 0 48 0;
#X connect 37 0 38 0;
#X connect 38 0 34 0;
#X connect 39 0 13 0;
#X connect 41 0 18 0;
#X connect 43 0 12 0;
#X connect 45 0 23 0;
#X connect 47 0 28 0;
#X connect 49 0 33 0;
#X connect 50 0 19 0;
#X connect 51 0 24 0;
#X connect 52 0 29 0;
#X connect 54 0 16 0;
#X connect 54 0 21 0;
#X connect 54 0 26 0;
#X connect 54 0 31 0;
#X connect 54 0 36 0;
