#N canvas 0 0 1920 944 16;
#X obj 511 246 metro;
#X obj 414 275 bng 20 250 50 0 empty empty empty 17 7 0 10 -262144
-1 -1;
#X obj 505 184 tgl 20 0 empty empty empty 17 7 0 10 -262144 -1 -1 0
1;
#X obj 560 31 loadbang;
#X obj 291 252 loadbang;
#X obj 511 286 bng 20 250 50 0 empty empty empty 17 7 0 10 -262144
-1 -1;
#X obj 541 388 + 1;
#X floatatom 464 398 5 0 0 0 - - -;
#X obj 464 347 int 1;
#X floatatom 558 212 5 0 0 0 - - -;
#X obj 414 234 sel 0;
#X msg 414 304 -1;
#X obj 96 727 spigot;
#X obj 151 693 tgl 20 0 empty empty empty 17 7 0 10 -262144 -1 -1 1
1;
#X obj 558 70 vsl 15 128 0 300 0 0 empty empty empty 0 -9 0 10 -262144
-1 -1 8000 1;
#X floatatom 30 757 5 0 0 0 - - -;
#X floatatom 215 474 5 0 0 0 - - -;
#X obj 234 640 key;
#X obj 281 730 spigot;
#X obj 336 696 tgl 20 0 empty empty empty 17 7 0 10 -262144 -1 -1 1
1;
#X floatatom 215 760 5 0 0 0 - - -;
#X floatatom 400 477 5 0 0 0 - - -;
#X obj 419 643 key;
#X obj 473 731 spigot;
#X obj 528 697 tgl 20 0 empty empty empty 17 7 0 10 -262144 -1 -1 1
1;
#X floatatom 407 761 5 0 0 0 - - -;
#X floatatom 592 478 5 0 0 0 - - -;
#X obj 611 644 key;
#X obj 668 731 spigot;
#X obj 723 697 tgl 20 0 empty empty empty 17 7 0 10 -262144 -1 -1 1
1;
#X floatatom 602 761 5 0 0 0 - - -;
#X floatatom 787 478 5 0 0 0 - - -;
#X obj 806 644 key;
#X obj 853 735 spigot;
#X obj 908 701 tgl 20 0 empty empty empty 17 7 0 10 -262144 -1 -1 1
1;
#X floatatom 787 765 5 0 0 0 - - -;
#X floatatom 972 482 5 0 0 0 - - -;
#X obj 991 648 key;
#X obj 950 676 sel 116;
#X obj 193 668 sel 113;
#X obj 337 528 s n2;
#X obj 285 608 receive n2;
#X obj 152 525 s n1;
#X obj 100 605 receive n1;
#X obj 529 529 s n3;
#X obj 477 609 receive n3;
#X obj 724 529 s n4;
#X obj 672 609 receive n4;
#X obj 909 533 s n5;
#X obj 857 613 receive n5;
#X obj 378 671 sel 119;
#X obj 570 672 sel 101;
#X obj 765 672 sel 114;
#X obj 464 441 % 64;
#N canvas 172 168 1364 676 bass 0;
#X obj 216 2 inlet;
#X obj 213 55 moses;
#X obj 166 133 moses;
#X obj 311 78 moses;
#X floatatom 295 33 5 0 0 0 - - -;
#X floatatom 225 117 5 0 0 0 - - -;
#X floatatom 385 56 5 0 0 0 - - -;
#X obj 83 347 bng 15 250 50 0 empty empty empty 17 7 0 10 -262144 -1
-1;
#X obj 138 346 bng 15 250 50 0 empty empty empty 17 7 0 10 -262144
-1 -1;
#X obj 531 387 bng 15 250 50 0 empty empty empty 17 7 0 10 -262144
-1 -1;
#X floatatom 1147 86 5 0 0 0 - - -;
#X obj 1197 136 pgmout 4;
#X obj 553 533 noteout 4;
#X obj 269 520 noteout 4;
#X obj 81 508 noteout 4;
#X msg 358 10 32;
#X msg 226 88 16;
#X msg 457 32 48;
#X msg 71 394 47;
#X obj 72 459 makenote 60 200;
#X obj 118 181 % 16;
#X obj 237 173 % 16;
#X obj 10 252 sel 0 2 4 7 9 12 14;
#X obj 219 258 sel 11;
#X msg 130 391 45;
#X msg 264 421 45;
#X obj 294 265 sel 0 2 4 7 9 11 12 14;
#X obj 285 357 bng 15 250 50 0 empty empty empty 17 7 0 10 -262144
-1 -1;
#X obj 489 180 % 16;
#X obj 523 266 sel 0 2 4 7 9 11 12 14;
#X msg 544 432 43;
#X obj 919 184 % 16;
#X obj 765 520 noteout 4;
#X obj 758 469 makenote 60 200;
#X msg 762 418 45;
#X obj 777 360 bng 15 250 50 0 empty empty empty 17 7 0 10 -262144
-1 -1;
#X obj 758 273 sel 0 2 4 7 9 11;
#X obj 938 275 sel 12;
#X obj 1013 276 sel 14;
#X obj 886 355 bng 15 250 50 0 empty empty empty 17 7 0 10 -262144
-1 -1;
#X obj 969 358 bng 15 250 50 0 empty empty empty 17 7 0 10 -262144
-1 -1;
#X msg 871 413 47;
#X msg 955 415 49;
#X obj 260 472 makenote 60 200;
#X obj 542 480 makenote 60 200;
#X obj 172 145 bng 15 250 50 0 empty empty empty 17 7 0 10 -262144
-1 -1;
#X msg 333 419 43;
#X msg 600 435 42;
#X msg 1101 8 35;
#X connect 0 0 1 0;
#X connect 1 0 2 0;
#X connect 1 1 3 0;
#X connect 2 0 20 0;
#X connect 2 1 21 0;
#X connect 3 0 28 0;
#X connect 3 1 31 0;
#X connect 4 0 1 1;
#X connect 5 0 2 1;
#X connect 6 0 3 1;
#X connect 7 0 18 0;
#X connect 8 0 24 0;
#X connect 9 0 30 0;
#X connect 10 0 11 0;
#X connect 15 0 4 0;
#X connect 16 0 5 0;
#X connect 17 0 6 0;
#X connect 18 0 19 0;
#X connect 19 0 14 0;
#X connect 19 1 14 1;
#X connect 20 0 22 0;
#X connect 20 0 23 0;
#X connect 21 0 26 0;
#X connect 22 0 7 0;
#X connect 22 1 7 0;
#X connect 22 2 7 0;
#X connect 22 3 7 0;
#X connect 22 4 7 0;
#X connect 22 5 7 0;
#X connect 22 6 7 0;
#X connect 23 0 8 0;
#X connect 24 0 19 0;
#X connect 25 0 43 0;
#X connect 26 0 27 0;
#X connect 26 1 27 0;
#X connect 26 2 27 0;
#X connect 26 3 27 0;
#X connect 26 4 27 0;
#X connect 26 5 46 0;
#X connect 26 6 27 0;
#X connect 26 7 27 0;
#X connect 27 0 25 0;
#X connect 28 0 29 0;
#X connect 29 0 9 0;
#X connect 29 1 9 0;
#X connect 29 2 9 0;
#X connect 29 3 9 0;
#X connect 29 4 9 0;
#X connect 29 5 47 0;
#X connect 29 6 9 0;
#X connect 29 7 9 0;
#X connect 30 0 44 0;
#X connect 31 0 36 0;
#X connect 31 0 37 0;
#X connect 31 0 38 0;
#X connect 33 0 32 0;
#X connect 33 1 32 1;
#X connect 34 0 33 0;
#X connect 35 0 34 0;
#X connect 36 0 35 0;
#X connect 36 1 35 0;
#X connect 36 2 35 0;
#X connect 36 3 35 0;
#X connect 36 4 35 0;
#X connect 36 5 35 0;
#X connect 37 0 39 0;
#X connect 38 0 40 0;
#X connect 39 0 41 0;
#X connect 40 0 42 0;
#X connect 41 0 33 0;
#X connect 42 0 33 0;
#X connect 43 0 13 0;
#X connect 43 1 13 1;
#X connect 44 0 12 0;
#X connect 44 1 12 1;
#X connect 46 0 43 0;
#X connect 47 0 44 0;
#X connect 48 0 10 0;
#X restore 651 796 pd bass;
#N canvas 452 166 1161 676 riff 0;
#X floatatom 53 257 5 0 0 0 - - -;
#X obj 230 59 inlet;
#X obj 192 104 moses;
#X obj 145 182 moses;
#X obj 290 127 moses;
#X floatatom 274 82 5 0 0 0 - - -;
#X floatatom 204 166 5 0 0 0 - - -;
#X floatatom 364 105 5 0 0 0 - - -;
#X obj 26 401 bng 15 250 50 0 empty empty empty 17 7 0 10 -262144 -1
-1;
#X obj 71 401 bng 15 250 50 0 empty empty empty 17 7 0 10 -262144 -1
-1;
#X obj 126 402 bng 15 250 50 0 empty empty empty 17 7 0 10 -262144
-1 -1;
#X floatatom 958 131 5 0 0 0 - - -;
#X obj 1006 181 pgmout 5;
#X obj 60 556 noteout 5;
#X obj 52 509 makenote 60 400;
#X msg 336 59 32;
#X msg 205 137 16;
#X msg 436 82 48;
#X obj 79 218 % 16;
#X obj 353 216 % 16;
#X obj 290 162 % 16;
#X obj 695 150 % 16;
#X obj 331 407 bng 15 250 50 0 empty empty empty 17 7 0 10 -262144
-1 -1;
#X obj 390 402 bng 15 250 50 0 empty empty empty 17 7 0 10 -262144
-1 -1;
#X obj 432 407 bng 15 250 50 0 empty empty empty 17 7 0 10 -262144
-1 -1;
#X obj 379 557 noteout 5;
#X obj 371 510 makenote 60 400;
#X floatatom 376 277 5 0 0 0 - - -;
#X msg 71 447 71;
#X msg 431 447 74;
#X obj 28 328 sel 0 2 4 6 7;
#X msg 8 448 69;
#X msg 129 452 73;
#X msg 181 453 74;
#X obj 172 399 bng 15 250 50 0 empty empty empty 17 7 0 10 -262144
-1 -1;
#X obj 180 328 sel 13 14;
#X obj 207 393 bng 15 250 50 0 empty empty empty 17 7 0 10 -262144
-1 -1;
#X obj 255 398 bng 15 250 50 0 empty empty empty 17 7 0 10 -262144
-1 -1;
#X msg 239 453 78;
#X obj 366 327 sel 0 1 3 5 8 9 11 13;
#X msg 332 446 71;
#X msg 375 444 73;
#X obj 478 404 bng 15 250 50 0 empty empty empty 17 7 0 10 -262144
-1 -1;
#X obj 515 403 bng 15 250 50 0 empty empty empty 17 7 0 10 -262144
-1 -1;
#X obj 567 402 bng 15 250 50 0 empty empty empty 17 7 0 10 -262144
-1 -1;
#X msg 486 446 76;
#X msg 529 444 78;
#X msg 584 446 81;
#X obj 697 328 sel 0 3 5;
#X obj 664 418 bng 15 250 50 0 empty empty empty 17 7 0 10 -262144
-1 -1;
#X obj 723 413 bng 15 250 50 0 empty empty empty 17 7 0 10 -262144
-1 -1;
#X obj 765 418 bng 15 250 50 0 empty empty empty 17 7 0 10 -262144
-1 -1;
#X obj 712 568 noteout 5;
#X obj 704 521 makenote 60 400;
#X msg 764 458 74;
#X msg 665 457 78;
#X msg 708 457 76;
#X msg 912 55 80;
#X connect 0 0 30 0;
#X connect 1 0 2 0;
#X connect 2 0 3 0;
#X connect 2 1 4 0;
#X connect 3 0 18 0;
#X connect 3 1 19 0;
#X connect 4 0 20 0;
#X connect 4 1 21 0;
#X connect 5 0 2 1;
#X connect 6 0 3 1;
#X connect 7 0 4 1;
#X connect 8 0 31 0;
#X connect 9 0 28 0;
#X connect 10 0 32 0;
#X connect 11 0 12 0;
#X connect 14 0 13 0;
#X connect 14 1 13 1;
#X connect 15 0 5 0;
#X connect 16 0 6 0;
#X connect 17 0 7 0;
#X connect 18 0 0 0;
#X connect 19 0 27 0;
#X connect 20 0 30 0;
#X connect 20 0 35 0;
#X connect 21 0 48 0;
#X connect 22 0 40 0;
#X connect 23 0 41 0;
#X connect 24 0 29 0;
#X connect 26 0 25 0;
#X connect 26 1 25 1;
#X connect 27 0 39 0;
#X connect 28 0 14 0;
#X connect 29 0 26 0;
#X connect 30 0 8 0;
#X connect 30 1 9 0;
#X connect 30 2 10 0;
#X connect 30 3 34 0;
#X connect 30 4 8 0;
#X connect 31 0 14 0;
#X connect 32 0 14 0;
#X connect 33 0 14 0;
#X connect 34 0 33 0;
#X connect 35 0 36 0;
#X connect 35 1 37 0;
#X connect 36 0 38 0;
#X connect 37 0 33 0;
#X connect 38 0 14 0;
#X connect 39 0 22 0;
#X connect 39 1 23 0;
#X connect 39 2 24 0;
#X connect 39 3 42 0;
#X connect 39 4 43 0;
#X connect 39 5 44 0;
#X connect 39 6 43 0;
#X connect 39 7 42 0;
#X connect 40 0 26 0;
#X connect 41 0 26 0;
#X connect 42 0 45 0;
#X connect 43 0 46 0;
#X connect 44 0 47 0;
#X connect 45 0 26 0;
#X connect 46 0 26 0;
#X connect 47 0 26 0;
#X connect 48 0 49 0;
#X connect 48 1 50 0;
#X connect 48 2 51 0;
#X connect 49 0 55 0;
#X connect 50 0 56 0;
#X connect 51 0 54 0;
#X connect 53 0 52 0;
#X connect 53 1 52 1;
#X connect 54 0 53 0;
#X connect 55 0 53 0;
#X connect 56 0 53 0;
#X connect 57 0 11 0;
#X restore 837 800 pd riff;
#N canvas 301 210 1520 676 piano 0;
#X obj 232 -41 inlet;
#X floatatom 1150 97 5 0 0 0 - - -;
#X obj 66 442 noteout 2;
#X obj 1144 156 pgmout 2;
#X msg -5 320 71;
#X msg 233 319 73;
#X obj 429 417 noteout 2;
#X obj 230 42 sel 0 16 32 48;
#X obj 110 154 t b b b;
#X obj 230 156 t b b b;
#X obj 361 158 t b b b;
#X obj 480 158 t b b b;
#X obj 129 103 bng 15 250 50 0 empty empty empty 17 7 0 10 -262144
-1 -1;
#X obj 235 107 bng 15 250 50 0 empty empty empty 17 7 0 10 -262144
-1 -1;
#X obj 354 106 bng 15 250 50 0 empty empty empty 17 7 0 10 -262144
-1 -1;
#X obj 483 104 bng 15 250 50 0 empty empty empty 17 7 0 10 -262144
-1 -1;
#X msg 52 320 74;
#X msg 115 317 78;
#X msg 172 317 69;
#X msg 290 319 76;
#X msg 358 315 67;
#X msg 415 316 71;
#X msg 478 313 74;
#X msg 534 313 69;
#X msg 596 315 73;
#X msg 653 315 76;
#X obj 58 412 makenote 60 2300;
#X obj 420 370 makenote 60 2300;
#X msg 1147 21 47;
#X connect 0 0 7 0;
#X connect 1 0 3 0;
#X connect 4 0 26 0;
#X connect 5 0 26 0;
#X connect 7 0 12 0;
#X connect 7 1 13 0;
#X connect 7 2 14 0;
#X connect 7 3 15 0;
#X connect 8 0 4 0;
#X connect 8 1 16 0;
#X connect 8 2 17 0;
#X connect 9 0 18 0;
#X connect 9 1 5 0;
#X connect 9 2 19 0;
#X connect 10 0 20 0;
#X connect 10 1 21 0;
#X connect 10 2 22 0;
#X connect 11 0 23 0;
#X connect 11 1 24 0;
#X connect 11 2 25 0;
#X connect 12 0 8 0;
#X connect 13 0 9 0;
#X connect 14 0 10 0;
#X connect 15 0 11 0;
#X connect 16 0 26 0;
#X connect 17 0 26 0;
#X connect 18 0 26 0;
#X connect 19 0 26 0;
#X connect 20 0 27 0;
#X connect 21 0 27 0;
#X connect 22 0 27 0;
#X connect 23 0 27 0;
#X connect 24 0 27 0;
#X connect 25 0 27 0;
#X connect 26 0 2 0;
#X connect 26 1 2 1;
#X connect 27 0 6 0;
#X connect 27 1 6 1;
#X connect 28 0 1 0;
#X restore 264 795 pd piano;
#N canvas 737 98 905 676 snare_drum 0;
#X obj 36 361 makenote 60 300;
#X obj 67 31 inlet;
#X obj 72 410 noteout 10;
#X floatatom 37 145 5 0 0 0 - - -;
#X msg 54 295 40;
#X obj 36 98 % 4;
#X obj 43 216 sel 2;
#X connect 0 0 2 0;
#X connect 0 1 2 1;
#X connect 1 0 5 0;
#X connect 3 0 6 0;
#X connect 4 0 0 0;
#X connect 5 0 3 0;
#X connect 6 0 4 0;
#X restore 456 797 pd snare_drum;
#N canvas 1032 128 743 676 bass_drum 0;
#X floatatom 149 123 5 0 0 0 - - -;
#X obj 149 41 inlet;
#X obj 122 347 noteout 10;
#X msg 125 265 36;
#X obj 149 87 % 16;
#X obj 122 306 makenote 60 300;
#X obj 129 184 sel 0 4 7 9 12;
#X connect 0 0 6 0;
#X connect 1 0 4 0;
#X connect 3 0 5 0;
#X connect 4 0 0 0;
#X connect 5 0 2 0;
#X connect 5 1 2 1;
#X connect 6 0 3 0;
#X connect 6 1 3 0;
#X connect 6 2 3 0;
#X connect 6 3 3 0;
#X connect 6 4 3 0;
#X restore 79 794 pd bass_drum;
#X connect 0 0 5 0;
#X connect 1 0 11 0;
#X connect 2 0 0 0;
#X connect 2 0 10 0;
#X connect 3 0 14 0;
#X connect 4 0 1 0;
#X connect 5 0 8 0;
#X connect 6 0 8 1;
#X connect 7 0 53 0;
#X connect 8 0 6 0;
#X connect 8 0 7 0;
#X connect 9 0 0 1;
#X connect 10 0 1 0;
#X connect 11 0 8 0;
#X connect 12 0 15 0;
#X connect 12 0 58 0;
#X connect 13 0 12 1;
#X connect 14 0 9 0;
#X connect 16 0 42 0;
#X connect 17 0 39 0;
#X connect 18 0 20 0;
#X connect 18 0 56 0;
#X connect 19 0 18 1;
#X connect 21 0 40 0;
#X connect 22 0 50 0;
#X connect 23 0 25 0;
#X connect 23 0 57 0;
#X connect 24 0 23 1;
#X connect 26 0 44 0;
#X connect 27 0 51 0;
#X connect 28 0 30 0;
#X connect 28 0 54 0;
#X connect 29 0 28 1;
#X connect 31 0 46 0;
#X connect 32 0 52 0;
#X connect 33 0 35 0;
#X connect 33 0 55 0;
#X connect 34 0 33 1;
#X connect 36 0 48 0;
#X connect 37 0 38 0;
#X connect 38 0 34 0;
#X connect 39 0 13 0;
#X connect 41 0 18 0;
#X connect 43 0 12 0;
#X connect 45 0 23 0;
#X connect 47 0 28 0;
#X connect 49 0 33 0;
#X connect 50 0 19 0;
#X connect 51 0 24 0;
#X connect 52 0 29 0;
#X connect 53 0 16 0;
#X connect 53 0 21 0;
#X connect 53 0 26 0;
#X connect 53 0 31 0;
#X connect 53 0 36 0;
