#N canvas 951 0 1920 944 16;
#X obj 511 246 metro;
#X obj 414 275 bng 20 250 50 0 empty empty empty 17 7 0 10 #fcfcfc #000000 #000000;
#X obj 505 184 tgl 20 0 empty empty empty 17 7 0 10 #fcfcfc #000000 #000000 0 1;
#X obj 560 31 loadbang;
#X obj 291 252 loadbang;
#X obj 511 286 bng 20 250 50 0 empty empty empty 17 7 0 10 #fcfcfc #000000 #000000;
#X obj 541 388 + 1;
#X floatatom 464 398 5 0 0 0 - - - 0;
#X obj 464 347 int 1;
#X floatatom 558 212 5 0 0 0 - - - 0;
#X obj 414 234 sel 0;
#X msg 414 304 -1;
#X obj 963 734 spigot;
#X obj 1018 700 tgl 20 0 empty empty empty 17 7 0 10 #fcfcfc #000000 #000000 0 1;
#X obj 558 70 vsl 15 128 0 300 0 0 empty empty empty 0 -9 0 10 #fcfcfc #000000 #000000 0 1;
#X floatatom 897 764 5 0 0 0 - - - 0;
#X floatatom 215 474 5 0 0 0 - - - 0;
#X obj 1017 645 key;
#X obj 1258 745 spigot;
#X obj 1313 711 tgl 20 0 empty empty empty 17 7 0 10 #fcfcfc #000000 #000000 0 1;
#X floatatom 1192 775 5 0 0 0 - - - 0;
#X floatatom 400 477 5 0 0 0 - - - 0;
#X obj 1314 652 key;
#X obj 1592 751 spigot;
#X obj 1647 717 tgl 20 0 empty empty empty 17 7 0 10 #fcfcfc #000000 #000000 0 1;
#X floatatom 1526 781 5 0 0 0 - - - 0;
#X floatatom 592 478 5 0 0 0 - - - 0;
#X obj 1648 657 key;
#X obj 1923 763 spigot;
#X obj 1978 729 tgl 20 0 empty empty empty 17 7 0 10 #fcfcfc #000000 #000000 0 1;
#X floatatom 1857 793 5 0 0 0 - - - 0;
#X floatatom 787 478 5 0 0 0 - - - 0;
#X obj 1970 671 key;
#X obj 2225 781 spigot;
#X obj 2280 747 tgl 20 0 empty empty empty 17 7 0 10 #fcfcfc #000000 #000000 0 1;
#X floatatom 2143 805 5 0 0 0 - - - 0;
#X floatatom 972 482 5 0 0 0 - - - 0;
#X obj 2284 686 key;
#X obj 2284 718 sel 116;
#X obj 1015 670 sel 113;
#X obj 1314 679 sel 119;
#X obj 1644 685 sel 101;
#X obj 1976 697 sel 114;
#X obj 464 441 % 64;
#N canvas 951 0 956 445 bass 0;
#X obj 216 2 inlet;
#X obj 213 55 moses;
#X obj 166 133 moses;
#X obj 311 78 moses;
#X floatatom 295 33 5 0 0 0 - - - 0;
#X floatatom 225 117 5 0 0 0 - - - 0;
#X floatatom 385 56 5 0 0 0 - - - 0;
#X obj 83 347 bng 15 250 50 0 empty empty empty 17 7 0 10 #fcfcfc #000000 #000000;
#X obj 138 346 bng 15 250 50 0 empty empty empty 17 7 0 10 #fcfcfc #000000 #000000;
#X obj 531 387 bng 15 250 50 0 empty empty empty 17 7 0 10 #fcfcfc #000000 #000000;
#X floatatom 1147 86 5 0 0 0 - - - 0;
#X obj 1197 136 pgmout 4;
#X obj 553 533 noteout 4;
#X obj 269 520 noteout 4;
#X obj 81 508 noteout 4;
#X msg 358 10 32;
#X msg 226 88 16;
#X msg 457 32 48;
#X msg 71 394 47;
#X obj 72 459 makenote 60 200;
#X obj 118 181 % 16;
#X obj 237 173 % 16;
#X obj 10 252 sel 0 2 4 7 9 12 14;
#X obj 219 258 sel 11;
#X msg 130 391 45;
#X msg 264 421 45;
#X obj 294 265 sel 0 2 4 7 9 11 12 14;
#X obj 285 357 bng 15 250 50 0 empty empty empty 17 7 0 10 #fcfcfc #000000 #000000;
#X obj 489 180 % 16;
#X obj 523 266 sel 0 2 4 7 9 11 12 14;
#X msg 544 432 43;
#X obj 919 184 % 16;
#X obj 765 520 noteout 4;
#X obj 758 469 makenote 60 200;
#X msg 762 418 45;
#X obj 777 360 bng 15 250 50 0 empty empty empty 17 7 0 10 #fcfcfc #000000 #000000;
#X obj 758 273 sel 0 2 4 7 9 11;
#X obj 938 275 sel 12;
#X obj 1013 276 sel 14;
#X obj 886 355 bng 15 250 50 0 empty empty empty 17 7 0 10 #fcfcfc #000000 #000000;
#X obj 969 358 bng 15 250 50 0 empty empty empty 17 7 0 10 #fcfcfc #000000 #000000;
#X msg 871 413 47;
#X msg 955 415 49;
#X obj 260 472 makenote 60 200;
#X obj 542 480 makenote 60 200;
#X obj 172 145 bng 15 250 50 0 empty empty empty 17 7 0 10 #fcfcfc #000000 #000000;
#X msg 333 419 43;
#X msg 600 435 42;
#X msg 1101 8 35;
#X msg 804 658 disconnect;
#X obj 800 688 netsend -u -b;
#X floatatom 826 766 5 0 0 0 - - - 0;
#X floatatom 406 666 5 0 0 0 - - - 0;
#X obj 539 617 pack f;
#X obj 566 665 oscformat /BA1;
#X msg 785 624 connect localhost 11113;
#X connect 0 0 1 0;
#X connect 1 0 2 0;
#X connect 1 1 3 0;
#X connect 2 0 20 0;
#X connect 2 1 21 0;
#X connect 3 0 28 0;
#X connect 3 1 31 0;
#X connect 4 0 1 1;
#X connect 5 0 2 1;
#X connect 6 0 3 1;
#X connect 7 0 18 0;
#X connect 8 0 24 0;
#X connect 9 0 30 0;
#X connect 10 0 11 0;
#X connect 15 0 4 0;
#X connect 16 0 5 0;
#X connect 17 0 6 0;
#X connect 18 0 19 0;
#X connect 18 0 52 0;
#X connect 19 0 14 0;
#X connect 19 1 14 1;
#X connect 20 0 22 0;
#X connect 20 0 23 0;
#X connect 21 0 26 0;
#X connect 22 0 7 0;
#X connect 22 1 7 0;
#X connect 22 2 7 0;
#X connect 22 3 7 0;
#X connect 22 4 7 0;
#X connect 22 5 7 0;
#X connect 22 6 7 0;
#X connect 23 0 8 0;
#X connect 24 0 19 0;
#X connect 24 0 52 0;
#X connect 25 0 43 0;
#X connect 25 0 52 0;
#X connect 26 0 27 0;
#X connect 26 1 27 0;
#X connect 26 2 27 0;
#X connect 26 3 27 0;
#X connect 26 4 27 0;
#X connect 26 5 46 0;
#X connect 26 6 27 0;
#X connect 26 7 27 0;
#X connect 27 0 25 0;
#X connect 28 0 29 0;
#X connect 29 0 9 0;
#X connect 29 1 9 0;
#X connect 29 2 9 0;
#X connect 29 3 9 0;
#X connect 29 4 9 0;
#X connect 29 5 47 0;
#X connect 29 6 9 0;
#X connect 29 7 9 0;
#X connect 30 0 44 0;
#X connect 30 0 52 0;
#X connect 31 0 36 0;
#X connect 31 0 37 0;
#X connect 31 0 38 0;
#X connect 33 0 32 0;
#X connect 33 1 32 1;
#X connect 34 0 33 0;
#X connect 34 0 52 0;
#X connect 35 0 34 0;
#X connect 36 0 35 0;
#X connect 36 1 35 0;
#X connect 36 2 35 0;
#X connect 36 3 35 0;
#X connect 36 4 35 0;
#X connect 36 5 35 0;
#X connect 37 0 39 0;
#X connect 38 0 40 0;
#X connect 39 0 41 0;
#X connect 40 0 42 0;
#X connect 41 0 33 0;
#X connect 41 0 52 0;
#X connect 42 0 33 0;
#X connect 42 0 52 0;
#X connect 43 0 13 0;
#X connect 43 1 13 1;
#X connect 44 0 12 0;
#X connect 44 1 12 1;
#X connect 46 0 43 0;
#X connect 46 0 52 0;
#X connect 47 0 44 0;
#X connect 47 0 52 0;
#X connect 48 0 10 0;
#X connect 49 0 50 0;
#X connect 50 0 51 0;
#X connect 52 0 53 0;
#X connect 53 0 54 0;
#X connect 54 0 50 0;
#X connect 55 0 50 0;
#X restore 1906 828 pd bass;
#N canvas 951 0 956 445 riff 0;
#X floatatom 53 257 5 0 0 0 - - - 0;
#X obj 230 59 inlet;
#X obj 192 104 moses;
#X obj 145 182 moses;
#X obj 290 127 moses;
#X floatatom 274 82 5 0 0 0 - - - 0;
#X floatatom 204 166 5 0 0 0 - - - 0;
#X floatatom 364 105 5 0 0 0 - - - 0;
#X obj 26 401 bng 15 250 50 0 empty empty empty 17 7 0 10 #fcfcfc #000000 #000000;
#X obj 71 401 bng 15 250 50 0 empty empty empty 17 7 0 10 #fcfcfc #000000 #000000;
#X obj 126 402 bng 15 250 50 0 empty empty empty 17 7 0 10 #fcfcfc #000000 #000000;
#X floatatom 958 131 5 0 0 0 - - - 0;
#X obj 1006 181 pgmout 5;
#X obj 60 556 noteout 5;
#X obj 52 509 makenote 60 400;
#X msg 336 59 32;
#X msg 205 137 16;
#X msg 436 82 48;
#X obj 79 218 % 16;
#X obj 353 216 % 16;
#X obj 290 162 % 16;
#X obj 695 150 % 16;
#X obj 331 407 bng 15 250 50 0 empty empty empty 17 7 0 10 #fcfcfc #000000 #000000;
#X obj 390 402 bng 15 250 50 0 empty empty empty 17 7 0 10 #fcfcfc #000000 #000000;
#X obj 432 407 bng 15 250 50 0 empty empty empty 17 7 0 10 #fcfcfc #000000 #000000;
#X obj 379 557 noteout 5;
#X obj 371 510 makenote 60 400;
#X floatatom 376 277 5 0 0 0 - - - 0;
#X msg 71 447 71;
#X msg 431 447 74;
#X obj 28 328 sel 0 2 4 6 7;
#X msg 8 448 69;
#X msg 129 452 73;
#X msg 181 453 74;
#X obj 172 399 bng 15 250 50 0 empty empty empty 17 7 0 10 #fcfcfc #000000 #000000;
#X obj 180 328 sel 13 14;
#X obj 207 393 bng 15 250 50 0 empty empty empty 17 7 0 10 #fcfcfc #000000 #000000;
#X obj 255 398 bng 15 250 50 0 empty empty empty 17 7 0 10 #fcfcfc #000000 #000000;
#X msg 239 453 78;
#X obj 366 327 sel 0 1 3 5 8 9 11 13;
#X msg 332 446 71;
#X msg 375 444 73;
#X obj 478 404 bng 15 250 50 0 empty empty empty 17 7 0 10 #fcfcfc #000000 #000000;
#X obj 515 403 bng 15 250 50 0 empty empty empty 17 7 0 10 #fcfcfc #000000 #000000;
#X obj 567 402 bng 15 250 50 0 empty empty empty 17 7 0 10 #fcfcfc #000000 #000000;
#X msg 486 446 76;
#X msg 529 444 78;
#X msg 584 446 81;
#X obj 697 328 sel 0 3 5;
#X obj 664 418 bng 15 250 50 0 empty empty empty 17 7 0 10 #fcfcfc #000000 #000000;
#X obj 723 413 bng 15 250 50 0 empty empty empty 17 7 0 10 #fcfcfc #000000 #000000;
#X obj 765 418 bng 15 250 50 0 empty empty empty 17 7 0 10 #fcfcfc #000000 #000000;
#X obj 712 568 noteout 5;
#X obj 704 521 makenote 60 400;
#X msg 764 458 74;
#X msg 665 457 78;
#X msg 708 457 76;
#X msg 912 55 80;
#X msg 725 768 disconnect;
#X obj 545 794 netsend -u -b;
#X floatatom 546 841 5 0 0 0 - - - 0;
#X floatatom 374 704 5 0 0 0 - - - 0;
#X obj 511 670 pack f;
#X obj 508 697 oscformat /M1;
#X msg 555 731 connect localhost 11113;
#X connect 0 0 30 0;
#X connect 1 0 2 0;
#X connect 2 0 3 0;
#X connect 2 1 4 0;
#X connect 3 0 18 0;
#X connect 3 1 19 0;
#X connect 4 0 20 0;
#X connect 4 1 21 0;
#X connect 5 0 2 1;
#X connect 6 0 3 1;
#X connect 7 0 4 1;
#X connect 8 0 31 0;
#X connect 9 0 28 0;
#X connect 10 0 32 0;
#X connect 11 0 12 0;
#X connect 14 0 13 0;
#X connect 14 1 13 1;
#X connect 15 0 5 0;
#X connect 16 0 6 0;
#X connect 17 0 7 0;
#X connect 18 0 0 0;
#X connect 19 0 27 0;
#X connect 20 0 30 0;
#X connect 20 0 35 0;
#X connect 21 0 48 0;
#X connect 22 0 40 0;
#X connect 23 0 41 0;
#X connect 24 0 29 0;
#X connect 26 0 25 0;
#X connect 26 1 25 1;
#X connect 27 0 39 0;
#X connect 28 0 14 0;
#X connect 28 0 61 0;
#X connect 29 0 26 0;
#X connect 29 0 61 0;
#X connect 30 0 8 0;
#X connect 30 1 9 0;
#X connect 30 2 10 0;
#X connect 30 3 34 0;
#X connect 30 4 8 0;
#X connect 31 0 14 0;
#X connect 31 0 61 0;
#X connect 32 0 14 0;
#X connect 32 0 61 0;
#X connect 33 0 14 0;
#X connect 33 0 61 0;
#X connect 34 0 33 0;
#X connect 35 0 36 0;
#X connect 35 1 37 0;
#X connect 36 0 38 0;
#X connect 37 0 33 0;
#X connect 38 0 14 0;
#X connect 38 0 61 0;
#X connect 39 0 22 0;
#X connect 39 1 23 0;
#X connect 39 2 24 0;
#X connect 39 3 42 0;
#X connect 39 4 43 0;
#X connect 39 5 44 0;
#X connect 39 6 43 0;
#X connect 39 7 42 0;
#X connect 40 0 26 0;
#X connect 40 0 61 0;
#X connect 41 0 26 0;
#X connect 41 0 61 0;
#X connect 42 0 45 0;
#X connect 43 0 46 0;
#X connect 44 0 47 0;
#X connect 45 0 26 0;
#X connect 45 0 61 0;
#X connect 46 0 26 0;
#X connect 46 0 61 0;
#X connect 47 0 26 0;
#X connect 47 0 61 0;
#X connect 48 0 49 0;
#X connect 48 1 50 0;
#X connect 48 2 51 0;
#X connect 49 0 55 0;
#X connect 50 0 56 0;
#X connect 51 0 54 0;
#X connect 53 0 52 0;
#X connect 53 1 52 1;
#X connect 54 0 53 0;
#X connect 54 0 61 0;
#X connect 55 0 53 0;
#X connect 55 0 61 0;
#X connect 56 0 53 0;
#X connect 56 0 61 0;
#X connect 57 0 11 0;
#X connect 58 0 59 0;
#X connect 59 0 60 0;
#X connect 61 0 62 0;
#X connect 62 0 63 0;
#X connect 63 0 59 0;
#X connect 64 0 59 0;
#X restore 2209 846 pd riff;
#N canvas 513 90 1520 676 piano 0;
#X obj 232 -41 inlet;
#X floatatom 1150 97 5 0 0 0 - - - 0;
#X obj 66 442 noteout 2;
#X obj 1144 156 pgmout 2;
#X msg -5 320 71;
#X msg 233 319 73;
#X obj 429 417 noteout 2;
#X obj 230 42 sel 0 16 32 48;
#X obj 110 154 t b b b;
#X obj 230 156 t b b b;
#X obj 361 158 t b b b;
#X obj 480 158 t b b b;
#X obj 129 103 bng 15 250 50 0 empty empty empty 17 7 0 10 #fcfcfc #000000 #000000;
#X obj 235 107 bng 15 250 50 0 empty empty empty 17 7 0 10 #fcfcfc #000000 #000000;
#X obj 354 106 bng 15 250 50 0 empty empty empty 17 7 0 10 #fcfcfc #000000 #000000;
#X obj 483 104 bng 15 250 50 0 empty empty empty 17 7 0 10 #fcfcfc #000000 #000000;
#X msg 52 320 74;
#X msg 115 317 78;
#X msg 172 317 69;
#X msg 290 319 76;
#X msg 358 315 67;
#X msg 415 316 71;
#X msg 478 313 74;
#X msg 534 313 69;
#X msg 596 315 73;
#X msg 653 315 76;
#X obj 58 412 makenote 60 2300;
#X obj 420 370 makenote 60 2300;
#X msg 1147 21 47;
#X msg 685 540 disconnect;
#X obj 522 628 netsend -u -b;
#X floatatom 503 710 5 0 0 0 - - - 0;
#X obj 314 545 pack f;
#X obj 335 580 oscformat /P1;
#X floatatom 277 477 5 0 0 0 - - - 0;
#X msg 502 490 connect localhost 11113;
#X connect 0 0 7 0;
#X connect 1 0 3 0;
#X connect 4 0 26 0;
#X connect 4 0 34 0;
#X connect 5 0 26 0;
#X connect 7 0 12 0;
#X connect 7 1 13 0;
#X connect 7 2 14 0;
#X connect 7 3 15 0;
#X connect 8 0 4 0;
#X connect 8 1 16 0;
#X connect 8 2 17 0;
#X connect 9 0 18 0;
#X connect 9 1 5 0;
#X connect 9 2 19 0;
#X connect 10 0 20 0;
#X connect 10 1 21 0;
#X connect 10 2 22 0;
#X connect 11 0 23 0;
#X connect 11 1 24 0;
#X connect 11 2 25 0;
#X connect 12 0 8 0;
#X connect 13 0 9 0;
#X connect 14 0 10 0;
#X connect 15 0 11 0;
#X connect 16 0 26 0;
#X connect 17 0 26 0;
#X connect 18 0 26 0;
#X connect 18 0 34 0;
#X connect 19 0 26 0;
#X connect 20 0 27 0;
#X connect 20 0 34 0;
#X connect 21 0 27 0;
#X connect 22 0 27 0;
#X connect 23 0 27 0;
#X connect 23 0 34 0;
#X connect 24 0 27 0;
#X connect 25 0 27 0;
#X connect 26 0 2 0;
#X connect 26 1 2 1;
#X connect 27 0 6 0;
#X connect 27 1 6 1;
#X connect 28 0 1 0;
#X connect 29 0 30 0;
#X connect 30 0 31 0;
#X connect 32 0 33 0;
#X connect 33 0 30 0;
#X connect 34 0 32 0;
#X connect 35 0 30 0;
#X restore 1241 810 pd piano;
#N canvas -9 0 956 427 snare_drum 0;
#X obj 36 361 makenote 60 300;
#X obj 67 31 inlet;
#X obj 72 410 noteout 10;
#X floatatom 37 145 5 0 0 0 - - - 0;
#X msg 54 295 40;
#X obj 36 98 % 4;
#X obj 43 216 sel 2;
#X msg 655 251 disconnect;
#X obj 492 339 netsend -u -b;
#X floatatom 473 421 5 0 0 0 - - - 0;
#X floatatom 283 197 5 0 0 0 - - - 0;
#X obj 349 196 pack f;
#X obj 344 241 oscformat /H1;
#X msg 467 183 connect localhost 11113;
#X connect 0 0 2 0;
#X connect 0 1 2 1;
#X connect 1 0 5 0;
#X connect 3 0 6 0;
#X connect 4 0 0 0;
#X connect 4 0 10 0;
#X connect 5 0 3 0;
#X connect 6 0 4 0;
#X connect 7 0 8 0;
#X connect 8 0 9 0;
#X connect 10 0 11 0;
#X connect 11 0 12 0;
#X connect 12 0 8 0;
#X connect 13 0 8 0;
#X restore 1575 817 pd snare_drum;
#N canvas -9 0 956 427 bass_drum 0;
#X floatatom 149 123 5 0 0 0 - - - 0;
#X obj 149 41 inlet;
#X obj 122 347 noteout 10;
#X msg 125 265 36;
#X obj 149 87 % 16;
#X obj 122 306 makenote 60 300;
#X obj 129 184 sel 0 4 7 9 12;
#X msg 743 195 disconnect;
#X obj 580 283 netsend -u -b;
#X floatatom 561 365 5 0 0 0 - - - 0;
#X obj 372 109 pack f;
#X obj 370 180 oscformat /B1;
#X msg 555 129 connect localhost 11113;
#X connect 0 0 6 0;
#X connect 1 0 4 0;
#X connect 3 0 5 0;
#X connect 3 0 10 0;
#X connect 4 0 0 0;
#X connect 5 0 2 0;
#X connect 5 1 2 1;
#X connect 6 0 3 0;
#X connect 6 1 3 0;
#X connect 6 2 3 0;
#X connect 6 3 3 0;
#X connect 6 4 3 0;
#X connect 7 0 8 0;
#X connect 8 0 9 0;
#X connect 10 0 11 0;
#X connect 11 0 8 0;
#X connect 12 0 8 0;
#X restore 946 801 pd bass_drum;
#X obj 337 528 s r2;
#X obj 529 529 s r3;
#X obj 152 526 s r1;
#X obj 724 530 s r4;
#X obj 909 533 s r5;
#X obj 968 612 receive r1;
#X obj 1263 623 receive r2;
#X obj 1596 629 receive r3;
#X obj 1927 643 receive r4;
#X obj 2229 659 receive r5;
#X msg 720 131 180;
#X obj 1269 211 netreceive -u -b;
#X obj 1290 277 oscparse;
#X obj 1216 297 bng 24 250 50 0 empty empty empty 0 -12 0 16 #fcfcfc #000000 #000000;
#X obj 1286 318 list trim;
#X symbolatom 1243 408 10 0 0 0 - - - 0;
#X floatatom 1396 426 5 0 0 0 - - - 0;
#X obj 1283 357 unpack s f;
#X obj 1381 502 sel 10 20 30 40;
#X obj 1229 499 sel 0;
#X obj 1231 537 bng 15 250 50 0 empty empty empty 17 7 0 10 #fcfcfc #000000 #000000;
#X msg 1273 165 listen 12005;
#X msg 1094 730 1;
#X floatatom 1094 762 5 0 0 0 - - - 0;
#X floatatom 1378 818 5 0 0 0 - - - 0;
#X msg 1415 756 1;
#X msg 1363 756 0;
#X obj 1419 734 bng 15 250 50 0 empty empty empty 17 7 0 10 #fcfcfc #000000 #000000;
#X floatatom 1743 825 5 0 0 0 - - - 0;
#X msg 1780 763 1;
#X msg 1728 763 0;
#X obj 1784 741 bng 15 250 50 0 empty empty empty 17 7 0 10 #fcfcfc #000000 #000000;
#X floatatom 2017 844 5 0 0 0 - - - 0;
#X msg 2054 782 1;
#X msg 2002 782 0;
#X obj 2058 760 bng 15 250 50 0 empty empty empty 17 7 0 10 #fcfcfc #000000 #000000;
#X floatatom 2338 862 5 0 0 0 - - - 0;
#X msg 2375 800 1;
#X msg 2323 800 0;
#X obj 2379 778 bng 15 250 50 0 empty empty empty 17 7 0 10 #fcfcfc #000000 #000000;
#X connect 0 0 5 0;
#X connect 1 0 11 0;
#X connect 2 0 0 0;
#X connect 2 0 10 0;
#X connect 3 0 14 0;
#X connect 4 0 1 0;
#X connect 5 0 8 0;
#X connect 6 0 8 1;
#X connect 7 0 43 0;
#X connect 8 0 6 0;
#X connect 8 0 7 0;
#X connect 9 0 0 1;
#X connect 10 0 1 0;
#X connect 11 0 8 0;
#X connect 12 0 15 0;
#X connect 12 0 48 0;
#X connect 13 0 12 1;
#X connect 16 0 51 0;
#X connect 17 0 39 0;
#X connect 18 0 20 0;
#X connect 18 0 46 0;
#X connect 19 0 18 1;
#X connect 21 0 49 0;
#X connect 22 0 40 0;
#X connect 23 0 25 0;
#X connect 23 0 47 0;
#X connect 24 0 23 1;
#X connect 26 0 50 0;
#X connect 27 0 41 0;
#X connect 28 0 30 0;
#X connect 28 0 44 0;
#X connect 29 0 28 1;
#X connect 31 0 52 0;
#X connect 32 0 42 0;
#X connect 33 0 35 0;
#X connect 33 0 45 0;
#X connect 34 0 33 1;
#X connect 36 0 53 0;
#X connect 37 0 38 0;
#X connect 38 0 34 0;
#X connect 39 0 13 0;
#X connect 40 0 19 0;
#X connect 41 0 24 0;
#X connect 42 0 29 0;
#X connect 43 0 16 0;
#X connect 43 0 21 0;
#X connect 43 0 26 0;
#X connect 43 0 31 0;
#X connect 43 0 36 0;
#X connect 54 0 12 0;
#X connect 55 0 18 0;
#X connect 56 0 23 0;
#X connect 57 0 28 0;
#X connect 58 0 33 0;
#X connect 59 0 9 0;
#X connect 60 0 61 0;
#X connect 60 0 62 0;
#X connect 61 0 63 0;
#X connect 63 0 66 0;
#X connect 65 0 67 0;
#X connect 65 0 68 0;
#X connect 66 0 64 0;
#X connect 66 1 65 0;
#X connect 67 0 80 0;
#X connect 67 1 84 0;
#X connect 67 2 76 0;
#X connect 67 3 88 0;
#X connect 68 0 69 0;
#X connect 69 0 71 0;
#X connect 69 0 75 0;
#X connect 69 0 79 0;
#X connect 69 0 83 0;
#X connect 69 0 87 0;
#X connect 70 0 60 0;
#X connect 71 0 72 0;
#X connect 72 0 12 1;
#X connect 73 0 18 1;
#X connect 74 0 73 0;
#X connect 75 0 73 0;
#X connect 76 0 74 0;
#X connect 77 0 23 1;
#X connect 78 0 77 0;
#X connect 79 0 77 0;
#X connect 80 0 78 0;
#X connect 81 0 28 1;
#X connect 82 0 81 0;
#X connect 83 0 81 0;
#X connect 84 0 82 0;
#X connect 85 0 33 1;
#X connect 86 0 85 0;
#X connect 87 0 85 0;
#X connect 88 0 86 0;
